<svg version="1.1" id="Layer_1" xmlns="http://www.w3.org/2000/svg" xmlns:xlink="http://www.w3.org/1999/xlink" x="0px" y="0px"
	 width="100%" viewBox="0 0 1024 1024" enable-background="new 0 0 1024 1024" xml:space="preserve">
<path fill="#fff" opacity="1.000000" stroke="none" 
	d="
M88.512886,638.538574 
	C96.000450,655.512512 108.987083,665.480896 126.312691,671.174805 
	C126.392578,668.358398 124.919113,666.677490 124.116318,664.792969 
	C103.808601,617.121460 106.963455,571.684082 137.711838,529.270020 
	C151.845825,509.773682 169.057327,493.028564 187.076950,477.087402 
	C198.321579,467.139771 209.068970,456.672424 215.444305,442.621918 
	C218.931442,434.936737 220.044235,426.698395 221.537598,418.541382 
	C222.101715,415.460175 220.685287,414.606995 217.538528,414.760284 
	C180.604218,416.559418 149.359390,392.423065 141.534485,355.971497 
	C132.201080,312.492828 158.902527,272.959595 201.624222,264.679260 
	C207.667465,263.507965 213.766342,262.698639 219.926590,263.524170 
	C223.356079,263.983795 225.157410,261.604095 227.024567,259.607269 
	C236.484802,249.489975 247.702377,242.473846 261.253510,239.170471 
	C295.306732,230.869324 330.029022,255.175110 334.514008,289.950531 
	C335.736206,299.426880 334.063751,308.393921 332.731598,317.838898 
	C339.131805,319.689056 345.321167,321.467041 351.276917,323.980682 
	C368.877472,331.408966 380.998871,344.821228 391.862213,359.928253 
	C403.621765,376.281616 415.255768,392.858063 431.991150,404.789734 
	C439.312775,410.009766 446.664886,415.285828 456.001129,416.282715 
	C468.782745,417.647430 470.383331,428.445648 465.062195,437.264984 
	C456.042145,452.214905 444.233643,464.510223 429.772125,474.169556 
	C411.196289,486.577026 390.732361,493.143372 368.274719,493.478394 
	C362.805725,493.559998 357.340240,494.535217 351.835571,494.299377 
	C349.207703,494.186829 347.787506,495.365387 347.359314,497.916565 
	C346.398163,503.642914 345.396606,509.362518 344.438690,515.089355 
	C344.086578,517.194519 345.390137,518.503540 346.798737,519.749023 
	C353.039185,525.266785 359.320465,530.739807 365.483917,536.342407 
	C367.594482,538.260925 369.298004,538.357178 371.535431,536.502014 
	C374.219940,534.276245 377.126556,532.294128 380.060730,530.397949 
	C395.842499,520.198853 411.941772,520.800659 426.015259,533.319031 
	C440.332245,546.053955 453.910614,559.665100 464.758911,575.608215 
	C471.338287,585.277588 475.659302,595.769897 473.373871,607.950195 
	C470.580902,622.835693 457.623657,631.136902 442.922302,627.388611 
	C436.207275,625.676575 430.241364,622.435486 424.544861,618.604797 
	C422.472595,617.211304 420.356140,615.883667 418.265289,614.517639 
	C414.284515,611.916870 410.515625,612.208679 406.776154,615.127625 
	C399.948364,620.457397 392.993469,625.625061 386.195984,630.992493 
	C379.386475,636.369324 376.768555,643.601562 377.118439,652.146667 
	C377.493530,661.308777 377.197449,670.454285 375.335999,679.471252 
	C374.178833,685.076599 372.147644,690.323486 368.269196,694.688232 
	C367.385223,695.683044 366.557709,696.631531 366.474213,698.126282 
	C365.868195,708.975952 361.307617,713.278748 350.231445,713.323242 
	C333.732391,713.389404 317.232178,713.448181 300.734222,713.306091 
	C296.596191,713.270447 294.001251,713.928589 291.913696,718.341370 
	C288.419342,725.728027 280.904572,727.882202 273.426270,728.205261 
	C256.441376,728.939087 239.539612,727.117126 222.627319,725.695190 
	C211.368042,724.748474 200.111893,723.938171 189.074081,721.385193 
	C169.446045,716.845398 153.128082,706.763184 139.987701,691.582031 
	C137.921249,689.194641 135.844986,687.684937 132.689392,686.958740 
	C120.444550,684.141113 108.726036,679.841553 98.367348,672.552917 
	C82.423676,661.334534 74.433205,645.004822 70.805878,626.582214 
	C63.962669,591.826782 72.214592,560.005554 90.857887,530.377991 
	C99.818192,516.138428 108.318329,501.613770 114.009186,485.648987 
	C125.733116,452.759308 115.472137,424.283234 85.443855,406.537659 
	C81.201729,404.030670 79.712578,400.589905 81.361290,397.104462 
	C82.992378,393.656311 87.231743,392.436707 91.836029,394.476562 
	C101.348999,398.691223 108.848137,405.611359 115.397926,413.433838 
	C135.228592,437.117889 136.941772,463.738678 126.849854,491.740997 
	C119.919548,510.970734 108.511703,527.954224 98.266678,545.485168 
	C87.371368,564.128784 81.137245,584.070862 81.425972,605.746094 
	C81.575172,616.947571 83.719543,627.877563 88.512886,638.538574 
M229.383652,543.661865 
	C229.783340,540.581238 229.370834,536.545715 233.432755,536.058655 
	C236.930603,535.639282 237.605438,539.411377 238.508438,541.951111 
	C245.828598,562.539185 260.447083,576.079102 279.794800,585.154541 
	C290.546814,590.197998 301.144806,595.476379 307.966095,605.884338 
	C308.622833,606.886292 309.475494,607.738159 310.863800,607.238525 
	C312.308533,606.718567 312.865540,605.591248 312.886932,604.122925 
	C312.919403,601.897583 312.183838,599.863342 311.308868,597.873596 
	C310.719421,596.533081 310.636780,595.294434 311.801483,594.225281 
	C312.948914,593.171997 314.205658,593.402649 315.532440,593.883423 
	C316.529694,594.244751 316.932159,595.873047 318.525269,595.196350 
	C318.940643,589.894714 317.412384,585.349976 313.239716,581.898132 
	C310.033905,579.246094 306.775299,576.649597 303.436066,574.168518 
	C291.328857,565.172485 282.183746,554.064514 278.255646,539.196716 
	C276.317841,531.862122 275.804657,524.460754 277.603302,517.027039 
	C278.264526,514.294067 280.157379,512.687927 283.021973,512.794373 
	C285.826843,512.898560 287.677887,514.504028 288.283600,517.268066 
	C288.743774,519.367859 289.237762,521.510132 289.283752,523.642761 
	C289.597443,538.186157 295.646667,549.966125 306.417938,559.457275 
	C315.975220,567.878723 320.618408,566.386902 323.674438,553.974609 
	C328.359589,534.945129 329.713531,515.289429 334.477600,496.270813 
	C335.081726,493.859222 334.043793,492.755798 331.463684,492.265442 
	C323.601318,490.771118 315.984680,488.352814 308.765717,484.866089 
	C304.406250,482.760468 300.330719,480.136658 297.039520,476.511902 
	C295.457031,474.769104 294.906830,472.544830 296.196228,470.513916 
	C297.428955,468.572235 299.459534,468.595215 301.558655,469.354095 
	C304.213165,470.313782 306.939697,471.071808 309.617737,471.968903 
	C341.553314,482.666687 373.498901,483.850189 405.335815,471.723694 
	C418.774261,466.605072 429.918396,458.146362 439.363220,447.365540 
	C430.663788,438.345184 430.170898,436.948059 432.226715,424.463104 
	C432.593109,422.238007 431.350922,421.491089 430.034454,420.495239 
	C426.184143,417.582397 422.254608,414.767212 418.503601,411.731506 
	C401.590363,398.043762 388.811859,380.680756 376.584076,363.036133 
	C357.743469,335.849274 331.985596,326.630127 300.170166,331.467255 
	C295.845337,332.124786 292.602600,333.461700 293.222809,339.015228 
	C293.653015,342.867737 290.762878,344.868866 287.310730,345.064545 
	C283.428314,345.284607 281.291077,342.817688 280.585602,339.047485 
	C278.413696,327.440277 274.013306,316.747833 267.347137,306.991730 
	C252.604553,285.415497 232.726959,273.555573 206.172638,277.673462 
	C174.051819,282.654602 148.062302,310.517303 154.792770,351.839508 
	C158.813293,376.523834 174.908508,392.173553 198.659073,399.532776 
	C208.649033,402.628204 218.937027,402.702362 229.195374,400.069519 
	C234.515808,398.703979 237.977844,401.025116 237.178452,405.646851 
	C235.539246,415.123962 234.972580,424.744690 232.802628,434.156067 
	C228.003754,454.969452 215.098648,470.340881 199.946579,484.328339 
	C183.907196,499.134888 167.874435,513.977295 154.092468,530.981873 
	C122.447906,570.025879 116.602219,612.944885 136.115555,659.044128 
	C148.494125,688.287964 170.428955,705.782776 202.450562,709.861633 
	C220.424469,712.151123 238.532776,712.784851 256.543427,714.596436 
	C259.571930,714.901001 262.657410,714.639404 266.315918,714.639404 
	C262.641479,708.386108 255.539078,707.470886 252.323303,701.870728 
	C263.192139,700.619019 271.271484,705.696411 278.467987,713.314514 
	C282.835632,710.959473 282.384796,707.562439 280.164368,704.163513 
	C276.749237,698.936096 271.259979,696.733582 265.513855,695.431641 
	C253.218140,692.645630 240.762299,692.863953 228.287750,694.025208 
	C224.557800,694.372437 220.088501,695.788208 218.421524,690.867065 
	C216.930115,686.464355 221.048920,684.968811 223.863678,683.132141 
	C228.791092,679.916809 233.275345,676.229919 236.707001,671.422791 
	C247.278763,656.613647 249.352356,639.947937 245.462173,622.810913 
	C239.947083,598.515991 225.726471,581.346619 201.221191,573.936951 
	C197.427979,572.789978 193.436340,572.297729 189.534576,571.512085 
	C187.620636,571.126709 185.999542,570.415771 185.782166,568.156616 
	C185.551071,565.755066 186.978180,564.520447 188.957581,563.641357 
	C190.508545,562.952393 192.115494,562.745850 193.800751,562.623352 
	C214.740768,561.101379 230.798996,570.561279 242.906540,586.366089 
	C262.585144,612.053955 265.430359,640.300659 252.779419,670.105530 
	C251.700211,672.648071 249.901398,674.965881 249.899368,677.976624 
	C250.467728,678.184326 250.937454,678.518799 251.377762,678.483765 
	C252.358124,678.405640 253.328506,678.164307 254.294739,677.952087 
	C271.047241,674.272461 282.781860,663.604736 292.996887,650.585449 
	C296.710510,645.852295 297.303223,641.834045 294.439117,636.230225 
	C290.074249,627.690063 285.255066,618.712524 286.906738,608.756409 
	C287.977783,602.300354 284.876984,600.490906 280.174377,598.839844 
	C271.825226,595.908447 263.683685,592.527649 256.524048,587.191895 
	C242.052719,576.406982 230.593750,563.690369 229.383652,543.661865 
M328.920013,628.521606 
	C323.080688,620.216492 323.080780,620.216614 331.435516,614.197388 
	C331.705902,614.002625 331.955139,613.772888 332.241974,613.607483 
	C334.846680,612.105164 335.137238,610.192139 333.290771,607.875183 
	C332.298981,606.630676 331.682922,605.035339 329.958557,604.263123 
	C325.292847,617.658630 315.159485,621.642395 301.592896,619.972717 
	C302.422791,622.461853 302.900970,624.215027 303.581482,625.885742 
	C308.235840,637.313293 313.365051,648.513611 319.926300,658.997070 
	C326.225586,669.062073 332.923645,678.801453 342.997101,685.595032 
	C348.901123,689.576660 354.336304,689.434692 358.298248,685.011780 
	C360.539337,682.509888 362.006622,679.524109 362.652679,676.156616 
	C364.447998,666.798889 364.659546,657.348267 364.738068,647.853210 
	C364.811920,638.922791 367.306976,630.797974 374.225647,624.518066 
	C381.151154,618.232056 388.920410,613.042175 396.354187,607.427917 
	C409.654175,597.383423 417.906403,597.428284 431.694611,606.998291 
	C435.529205,609.659790 439.436432,612.164795 443.761444,614.015015 
	C448.865631,616.198425 453.614960,615.718750 457.704132,612.065369 
	C461.678497,608.514587 462.338013,603.782166 461.245331,598.751709 
	C459.954529,592.809143 457.450989,587.354492 453.911011,582.464172 
	C443.006073,567.399353 430.297363,554.029297 415.563843,542.651917 
	C411.288910,539.350769 406.555054,537.171204 400.881989,537.178162 
	C393.442657,537.187317 388.042267,541.404541 382.625427,545.513611 
	C366.032288,558.100586 348.595825,568.899170 327.655640,572.666748 
	C327.099030,572.766907 326.635834,573.385986 325.853149,573.968506 
	C329.945343,581.064575 331.982330,588.620667 331.467743,596.547302 
	C333.641754,596.973572 334.693390,595.991455 335.672882,595.185120 
	C339.348938,592.159119 341.902130,593.179504 343.810150,597.186157 
	C344.165283,597.931885 344.829926,598.540710 345.129822,599.300354 
	C346.723694,603.337646 349.057892,603.268066 352.486389,601.238831 
	C359.527924,597.071167 359.614410,597.218262 363.860229,604.120850 
	C364.296539,604.830200 364.713959,605.553345 365.187836,606.237061 
	C366.650116,608.346680 366.082825,609.847656 363.996185,611.189026 
	C361.523102,612.778992 358.686401,613.935486 356.905640,616.467102 
	C358.092346,620.585510 361.807953,623.280212 362.733795,627.631287 
	C358.839691,630.265076 355.276520,633.200378 350.849335,635.047729 
	C350.079041,634.097839 349.404144,633.376648 348.854218,632.570312 
	C342.985809,623.964844 342.961060,623.913391 334.353699,629.355896 
	C332.464722,630.550232 330.907532,631.495300 328.920013,628.521606 
M289.730713,253.721664 
	C269.268982,246.837296 249.534485,255.432266 241.004700,266.697815 
	C248.469315,269.727234 255.635956,273.128052 261.742828,278.372162 
	C273.834229,288.755371 283.110840,301.119019 288.505768,316.213654 
	C289.532349,319.085907 290.893829,319.954529 294.089752,319.007019 
	C298.194580,317.790009 302.525024,317.063110 306.803650,316.755005 
	C318.838287,315.888336 318.861694,316.018372 321.175751,304.171326 
	C321.460236,302.715057 321.606445,301.211517 321.628021,299.727173 
	C321.918060,279.762024 309.528046,261.620758 289.730713,253.721664 
M303.166290,660.222107 
	C295.318665,669.398315 287.412994,678.513611 275.889862,684.966797 
	C283.149231,688.504456 288.983826,692.219482 292.711700,698.430969 
	C293.250549,699.328918 294.305450,699.535095 295.342377,699.614746 
	C307.774475,700.568848 320.217224,701.143860 332.680634,700.400269 
	C334.981293,700.262939 337.256500,699.699280 341.014404,699.096313 
	C334.465515,696.047913 330.966370,690.463989 325.415680,689.646667 
	C318.105194,688.570251 311.349579,685.820984 304.222076,684.354858 
	C302.774719,684.057129 301.840118,683.379517 301.470398,681.883789 
	C299.986450,675.881104 303.846497,670.404053 310.298553,670.071350 
	C308.501282,666.273499 307.023712,662.548279 303.166290,660.222107 
M355.300598,547.299377 
	C352.759979,541.200928 346.822876,538.753357 342.164368,533.937073 
	C340.270538,541.436646 338.450989,547.863159 338.375366,555.201599 
	C344.740173,553.651245 350.043671,551.198242 355.300598,547.299377 
z"/>
<path fill="#fff" opacity="1.000000" stroke="none" 
	d="
M699.352539,579.360657 
	C699.349304,594.150940 699.189270,608.484741 699.439087,622.811340 
	C699.517029,627.278198 698.017151,628.786865 693.691895,628.428833 
	C690.049683,628.127380 686.361450,628.240417 682.699768,628.359253 
	C679.662231,628.457825 678.631470,627.113586 678.639648,624.171753 
	C678.704590,600.675781 678.711060,577.179504 678.641602,553.683594 
	C678.632629,550.630249 679.861084,549.477051 682.805237,549.632080 
	C685.131531,549.754578 687.469788,549.646057 689.802734,549.647522 
	C697.755249,549.652405 697.755249,549.653625 698.779358,557.992004 
	C704.538086,551.458801 711.334473,547.877808 719.840942,548.286255 
	C728.235413,548.689331 734.836487,552.123779 739.013245,560.265930 
	C745.217285,551.213867 753.575745,547.650208 763.784180,548.465515 
	C777.327637,549.547180 784.915710,557.037170 785.221924,570.626648 
	C785.623535,588.447998 785.276428,606.285400 785.381165,624.115112 
	C785.400757,627.447388 784.001343,628.509827 780.890198,628.389343 
	C777.063049,628.241028 773.216003,628.167358 769.396362,628.388123 
	C765.577148,628.608765 764.567566,626.908020 764.604553,623.343750 
	C764.748047,609.514099 764.663757,595.682190 764.664246,581.851074 
	C764.664307,581.017883 764.666748,580.184692 764.663452,579.351501 
	C764.628479,570.481018 761.215393,565.496216 755.123047,565.415955 
	C748.676270,565.330994 742.467102,572.026123 742.388428,579.630676 
	C742.243530,593.626892 742.350159,607.625671 742.343689,621.623352 
	C742.340576,628.372192 742.332031,628.372131 735.404358,628.376587 
	C721.634521,628.385437 721.627869,628.385498 721.620544,614.428345 
	C721.614746,603.263489 721.648193,592.098572 721.611328,580.933838 
	C721.605347,579.116028 721.515381,577.258301 721.137146,575.488953 
	C719.656494,568.563354 716.419128,565.333191 711.276184,565.425659 
	C705.782043,565.524475 700.757080,569.981934 699.535645,575.914978 
	C699.336548,576.881958 699.407715,577.904480 699.352539,579.360657 
z"/>
<path fill="#fff" opacity="1.000000" stroke="none" 
	d="
M565.650513,417.956848 
	C565.652954,408.800720 565.789795,400.134888 565.595032,391.476471 
	C565.511597,387.767853 566.847778,386.390350 570.516052,386.605835 
	C574.334595,386.830139 578.192749,386.882019 582.003601,386.601624 
	C586.153320,386.296295 587.456482,387.875153 587.421143,392.002594 
	C587.251160,411.825653 587.349060,431.651062 587.348022,451.475616 
	C587.347290,464.469879 587.250488,477.465088 587.393921,490.457733 
	C587.433594,494.048553 586.353455,495.656281 582.568298,495.427673 
	C578.584473,495.187073 574.566833,495.207550 570.579346,495.413330 
	C566.932495,495.601562 565.554199,494.223022 565.601685,490.521301 
	C565.753174,478.695160 565.490967,466.862366 565.741760,455.039642 
	C565.832214,450.778107 564.747864,449.067200 560.194153,449.258301 
	C552.211731,449.593292 544.201599,449.491608 536.210266,449.288422 
	C532.529785,449.194855 531.225098,450.440857 531.285095,454.172668 
	C531.467163,465.498016 531.357483,476.828247 531.341797,488.156555 
	C531.331787,495.374268 531.316101,495.375031 523.872925,495.374237 
	C521.374023,495.373962 518.875122,495.372101 516.376221,495.364655 
	C509.692200,495.344696 509.661255,495.343353 509.656891,488.831116 
	C509.642181,466.840851 509.651093,444.850555 509.651672,422.860291 
	C509.651947,412.531525 509.770630,402.200745 509.593201,391.875061 
	C509.528778,388.128754 510.531891,386.306580 514.623108,386.594879 
	C518.601746,386.875244 522.627502,386.857117 526.609924,386.608063 
	C530.446533,386.368164 531.453064,388.036835 531.398743,391.607239 
	C531.236633,402.266663 531.574707,412.937256 531.247192,423.589050 
	C531.095337,428.527954 532.862244,429.943939 537.577942,429.730591 
	C544.893066,429.399719 552.248108,429.367676 559.559387,429.737976 
	C564.481934,429.987305 566.263000,428.173981 565.680542,423.444122 
	C565.478455,421.803101 565.649841,420.116150 565.650513,417.956848 
z"/>
<path fill="#ffffff" opacity="1.000000" stroke="none" 
	d="
M536.413452,540.346191 
	C530.649414,544.129517 529.116882,549.976807 528.666077,555.707886 
	C527.557678,569.799805 527.008118,583.978577 530.496643,597.882202 
	C532.875916,607.364929 541.452881,612.954590 550.879333,611.563904 
	C559.752258,610.254822 566.577393,600.037109 564.803345,590.918701 
	C564.378967,588.737244 563.087891,588.320984 561.262512,588.320068 
	C558.265137,588.318542 555.267517,588.308899 552.270386,588.273315 
	C551.106750,588.259460 549.551392,588.630432 548.844849,588.033142 
	C544.388489,584.266113 547.537537,579.124634 546.742188,574.653809 
	C546.309509,572.221436 547.745972,570.949951 550.229126,570.947754 
	C561.052673,570.938232 571.876221,570.939148 582.699646,570.903809 
	C585.193970,570.895691 586.317261,572.032654 586.313477,574.538452 
	C586.288147,591.357300 586.294800,608.176086 586.316040,624.994934 
	C586.318909,627.255432 585.341736,628.400879 583.030273,628.331787 
	C579.227844,628.218140 575.396301,628.740540 571.311890,627.856323 
	C570.392273,624.916870 569.655701,621.908386 569.542664,617.682007 
	C565.680115,622.710266 562.038940,627.066284 556.539246,628.202881 
	C541.987915,631.210144 528.356812,629.628845 517.254089,618.481384 
	C510.231171,611.430176 507.374786,602.332642 505.963318,592.894531 
	C503.786774,578.340698 503.965729,563.801208 507.620361,549.374329 
	C516.111633,515.854858 554.972412,513.290527 573.454102,529.928955 
	C579.748169,535.595276 583.227966,544.109497 583.643921,555.389526 
	C577.076843,555.389526 570.506836,555.490906 563.943665,555.324463 
	C562.102783,555.277771 562.014832,553.370605 561.695129,551.893677 
	C558.790466,538.475525 548.745178,533.761353 536.413452,540.346191 
z"/>
<path fill="#ffffff" opacity="1.000000" stroke="none" 
	d="
M659.695679,424.302795 
	C669.003235,433.891968 669.927307,445.524780 669.254700,457.596130 
	C669.067871,460.950134 666.418640,460.319946 664.396118,460.331116 
	C652.230408,460.398468 640.064148,460.360077 627.898193,460.404816 
	C626.102478,460.411438 624.235168,460.012024 622.252808,461.067383 
	C621.979797,465.713684 622.875183,470.198944 625.383728,474.217010 
	C630.937927,483.113464 642.230835,483.084198 647.295044,473.966431 
	C649.114990,470.689606 651.138916,469.360382 654.742065,469.693939 
	C659.325989,470.118347 664.000671,469.184937 668.540894,470.311859 
	C668.126648,481.635986 657.830017,494.090576 643.910767,496.333252 
	C619.385925,500.284698 602.569397,487.138580 600.777832,462.197113 
	C599.902588,450.011871 601.085449,438.028290 608.929504,428.012512 
	C621.333740,412.174011 644.056091,410.557343 659.695679,424.302795 
M624.312134,439.843475 
	C623.608521,441.838196 622.568726,443.770630 623.076477,446.072937 
	C631.476746,446.072937 639.771545,446.072937 648.085693,446.072937 
	C647.419922,435.374939 643.029541,430.696564 634.770752,431.382294 
	C629.731567,431.800751 626.755859,434.964844 624.312134,439.843475 
z"/>
<path fill="#ffffff" opacity="1.000000" stroke="none" 
	d="
M808.690552,445.117371 
	C811.381165,429.935059 819.053955,419.202911 834.226624,416.077332 
	C856.501587,411.488617 874.651001,421.050110 878.485779,446.261780 
	C880.077881,456.729248 879.480408,466.775391 875.469971,476.587921 
	C869.155762,492.036957 853.446228,499.130920 838.019531,496.884491 
	C820.893066,494.390533 810.158569,482.509125 808.598572,465.913696 
	C807.956909,459.087921 807.473267,452.338074 808.690552,445.117371 
M829.973938,447.438812 
	C828.651123,455.925842 828.893738,464.342743 831.798462,472.475006 
	C833.462219,477.133087 836.665222,480.319489 841.983459,480.779358 
	C847.081726,481.220245 851.513245,479.804871 853.706360,475.045807 
	C859.328308,462.846252 859.483459,450.268555 854.453552,437.890594 
	C852.389099,432.810333 847.803040,430.830475 842.193604,431.244720 
	C837.067444,431.623322 834.022461,434.466309 832.125488,438.914215 
	C831.079468,441.366730 830.364441,443.918945 829.973938,447.438812 
z"/>
<path fill="#ffffff" opacity="1.000000" stroke="none" 
	d="
M848.191895,625.422729 
	C824.183472,636.229431 796.556213,625.848633 795.627502,592.963318 
	C795.301636,581.424561 796.546326,570.356628 803.888000,560.826172 
	C812.596069,549.522034 828.169983,545.184326 842.636597,550.017700 
	C854.913818,554.119568 863.237610,566.417542 863.346558,580.615723 
	C863.444153,593.331482 863.444031,593.338806 850.930603,593.352783 
	C841.439148,593.363342 831.947571,593.329224 822.456299,593.371216 
	C820.666138,593.379150 818.786072,592.966797 816.861145,594.183105 
	C816.600769,597.744934 817.412476,601.261169 818.741455,604.628601 
	C820.715393,609.630127 824.256531,613.143738 829.776550,613.515076 
	C835.204346,613.880188 839.563599,611.398804 841.963562,606.440613 
	C843.444824,603.380371 845.550476,602.448181 848.713928,602.665771 
	C853.329041,602.983337 857.997864,602.244385 863.134155,603.254333 
	C861.756165,613.120483 856.683655,620.175354 848.191895,625.422729 
M819.419800,579.559021 
	C824.733521,579.587891 830.047241,579.634094 835.360962,579.641663 
	C843.226318,579.652832 844.127991,578.193481 840.658508,571.076965 
	C840.224060,570.185852 839.732117,569.301208 839.132996,568.515564 
	C835.861816,564.225647 829.607056,563.098572 824.775635,565.884888 
	C820.054382,568.607666 816.999695,575.345215 819.419800,579.559021 
z"/>
<path fill="#ffffff" opacity="1.000000" stroke="none" 
	d="
M650.583435,624.791260 
	C634.737244,633.070862 615.654785,630.632263 605.844482,618.709412 
	C597.659363,608.761597 596.149536,596.719360 597.080078,584.304260 
	C597.694824,576.101685 599.466736,568.176208 604.567810,561.412598 
	C613.956665,548.963684 626.955444,546.445251 641.178284,549.186401 
	C655.597168,551.965332 663.198914,562.070068 666.214417,575.832825 
	C667.968445,583.838013 667.966553,591.980103 666.469055,600.093689 
	C664.572327,610.370544 659.905457,618.849304 650.583435,624.791260 
M627.862671,612.838013 
	C635.771057,614.876404 641.313782,612.117493 643.741638,604.403442 
	C646.960754,594.175598 646.795105,583.800110 643.675598,573.579285 
	C641.765381,567.320801 638.115845,564.538452 632.711365,564.383484 
	C627.395630,564.231140 622.990173,567.466003 620.955261,573.413391 
	C618.733765,579.906006 617.651001,586.682861 618.517334,593.480652 
	C619.426392,600.614258 619.663879,608.303345 627.862671,612.838013 
z"/>
<path fill="#ffffff" opacity="1.000000" stroke="none" 
	d="
M738.805481,424.201477 
	C743.548889,429.621765 746.421021,435.416290 746.382690,443.059845 
	C740.731323,443.481293 735.313477,443.863464 729.900024,444.299377 
	C727.585754,444.485687 726.690308,443.067261 726.039368,441.201111 
	C724.024231,435.424377 720.776550,431.093384 713.887939,431.402008 
	C708.213989,431.656189 703.543030,435.880493 701.586121,442.886566 
	C699.082458,451.850586 698.544250,460.913422 701.458069,469.921509 
	C704.165771,478.292236 711.641296,482.442841 718.837708,479.777710 
	C722.629639,478.373383 724.713135,475.459259 725.870850,471.865967 
	C726.732178,469.192719 728.108215,468.235626 730.976746,468.551575 
	C734.773315,468.969696 738.629761,468.819519 742.456787,468.993317 
	C745.701965,469.140656 746.677979,470.615326 745.836853,473.934082 
	C741.391296,491.475616 726.081360,499.055573 709.382446,496.828766 
	C690.921936,494.367065 679.710388,481.077942 678.739563,461.810577 
	C678.371216,454.500122 678.603088,447.238647 680.547974,440.029602 
	C687.625305,413.796570 717.366821,409.161499 735.429749,421.450195 
	C736.528198,422.197479 737.515198,423.108643 738.805481,424.201477 
z"/>
<path fill="#ffffff" opacity="1.000000" stroke="none" 
	d="
M897.650574,608.202393 
	C896.617432,611.767273 899.297058,610.562561 900.492554,610.580811 
	C908.819458,610.708130 917.151917,610.789001 925.476440,610.604675 
	C929.133118,610.523682 930.353271,611.781616 930.406616,615.482056 
	C930.592590,628.367615 930.720459,628.364990 918.053345,628.363037 
	C904.060974,628.360779 890.067139,628.244568 876.077271,628.431335 
	C872.018005,628.485535 871.038269,627.111328 870.473022,623.079773 
	C869.209534,614.068359 874.022095,608.114685 878.976257,601.747681 
	C887.151428,591.241211 894.921387,580.419250 902.847290,569.719360 
	C903.418579,568.948120 904.204895,568.205322 903.557922,566.378784 
	C895.713379,566.378784 887.619812,566.385132 879.526245,566.377075 
	C871.756592,566.369324 871.694275,566.362183 871.763062,558.810425 
	C871.856201,548.586304 870.469727,549.694153 880.724915,549.655151 
	C894.883606,549.601257 909.043823,549.750854 923.200806,549.587830 
	C927.036743,549.543640 928.211304,550.738525 928.489014,554.678406 
	C929.010193,562.071533 926.986816,568.111572 922.447632,573.998474 
	C913.917664,585.061157 906.005310,596.600037 897.650574,608.202393 
z"/>
<path fill="#ffffff" opacity="1.000000" stroke="none" 
	d="
M778.776306,496.427856 
	C767.511353,494.231750 762.798096,489.038422 761.554871,478.440063 
	C759.995911,465.148834 761.058716,451.825226 760.818481,438.519653 
	C760.752014,434.835938 760.748962,431.736023 755.723145,432.256531 
	C754.072754,432.427490 752.764954,431.698578 752.755432,429.730530 
	C752.738586,426.235229 752.727661,422.739624 752.752136,419.244446 
	C752.768555,416.899261 754.462769,416.586395 756.208862,416.708496 
	C759.809692,416.960236 760.774292,415.032104 760.853027,411.841339 
	C760.943115,408.189575 761.602600,404.544983 761.584351,400.899445 
	C761.567505,397.522095 763.116150,396.766663 766.158264,396.670624 
	C780.272522,396.225067 780.270264,396.154907 780.350281,410.213318 
	C780.386719,416.624390 780.414246,416.663086 786.750854,416.635040 
	C788.247070,416.628418 789.757690,416.632294 791.236450,416.438751 
	C799.345520,415.377472 799.342834,415.356873 799.347473,423.666016 
	C799.347656,423.999084 799.347839,424.332153 799.347534,424.665222 
	C799.340637,432.366608 799.340576,432.361511 791.836853,432.369171 
	C781.178345,432.380035 782.391418,431.589966 782.350037,441.651245 
	C782.312317,450.810486 782.315308,459.970123 782.353333,469.129364 
	C782.390259,478.013153 785.870667,480.856415 794.557495,479.200623 
	C795.535278,479.014282 796.515259,478.806580 797.503906,478.721527 
	C798.149841,478.665985 798.813416,478.814056 799.714294,478.892212 
	C800.929382,483.140442 800.198181,487.451630 800.229065,491.710388 
	C800.246582,494.128052 798.218506,494.633392 796.502441,495.082550 
	C790.827759,496.568024 785.037170,496.936462 778.776306,496.427856 
z"/>
<path fill="#ffffff" opacity="1.000000" stroke="none" 
	d="
M913.636108,424.502075 
	C918.402466,418.691803 923.883179,415.150421 931.450989,415.607727 
	C934.153809,415.771057 935.451538,416.726440 935.317261,419.488647 
	C935.244629,420.982269 935.377502,422.484863 935.337280,423.981293 
	C935.248108,427.299652 936.048706,431.061981 934.743774,433.818207 
	C933.213562,437.050446 929.018188,434.867401 926.049438,435.508026 
	C916.891541,437.484283 911.400085,444.094421 911.380859,453.618408 
	C911.353333,467.243134 911.373779,480.867920 911.373779,495.235321 
	C905.105042,495.235321 899.193665,495.273438 893.283203,495.216278 
	C890.972961,495.193939 890.760986,493.442932 890.760071,491.685608 
	C890.747559,467.883362 890.758179,444.081055 890.717834,420.278870 
	C890.713562,417.770020 891.713623,416.617706 894.268555,416.671356 
	C897.762207,416.744659 901.278625,416.904968 904.749207,416.607269 
	C909.209900,416.224640 910.853516,418.083832 910.369202,422.376862 
	C910.187317,423.989075 910.339661,425.638947 910.339661,427.371643 
	C912.319519,427.200897 912.450439,425.519958 913.636108,424.502075 
z"/>
<path fill="#ffffff" opacity="1.000000" stroke="none" 
	d="
M262.923431,334.433777 
	C264.482513,342.380371 265.592590,349.914307 262.545013,358.262573 
	C260.056885,355.485229 260.377930,352.850037 259.662354,350.617920 
	C254.597916,334.821075 248.072281,319.938751 232.918228,311.093842 
	C220.692291,303.957916 207.700317,302.256378 194.094589,306.997406 
	C192.616302,307.512543 191.203903,308.770264 188.913971,307.878052 
	C191.705551,303.217987 195.604691,300.211823 200.350174,298.141052 
	C221.195435,289.044739 250.853668,297.483246 259.360382,323.107971 
	C260.562622,326.729401 261.642731,330.391357 262.923431,334.433777 
z"/>
<path fill="#ffffff" opacity="1.000000" stroke="none" 
	d="
M334.771027,408.493408 
	C324.123840,400.722076 326.435211,386.706085 335.017303,381.773987 
	C341.350586,378.134277 349.859863,378.964020 354.871552,383.928558 
	C359.889404,388.899200 360.846527,397.671631 357.031067,403.721558 
	C353.209015,409.781952 345.319855,412.508179 338.258392,410.156433 
	C337.163513,409.791779 336.148743,409.186615 334.771027,408.493408 
z"/>
<path fill="#ffffff" opacity="1.000000" stroke="none" 
	d="
M364.955383,432.657623 
	C372.340363,432.009674 379.273956,431.282074 386.224182,430.788452 
	C389.021851,430.589722 391.761475,431.285828 392.179749,434.704010 
	C392.587067,438.032532 390.235260,439.632690 387.475006,440.157959 
	C371.667175,443.166046 355.801727,445.828735 339.672180,446.332886 
	C337.497345,446.400848 334.530029,447.142670 333.920258,443.918427 
	C333.308716,440.684875 336.181274,439.749054 338.429047,438.828583 
	C346.787872,435.405457 355.696320,434.219299 364.955383,432.657623 
z"/>
<path fill="#ffffff" opacity="1.000000" stroke="none" 
	d="
M380.255585,461.345764 
	C373.212708,464.460083 366.540588,467.474304 359.847870,470.442078 
	C358.335815,471.112579 356.793671,471.825592 355.190643,472.152161 
	C353.262115,472.545135 351.568634,471.821136 350.478973,470.068024 
	C349.266846,468.117950 350.209686,466.620483 351.514465,465.164886 
	C354.120087,462.258209 357.422211,460.279297 360.764404,458.435303 
	C371.024536,452.774628 381.933685,448.813568 393.357422,446.189362 
	C396.204987,445.535248 398.459076,445.899017 399.515869,448.722168 
	C400.509644,451.376953 398.914032,453.351807 396.676788,454.379608 
	C391.390869,456.807983 385.979462,458.963196 380.255585,461.345764 
z"/>
<path fill="#000000" opacity="1.000000" stroke="none" 
	d="
M410.633698,578.585083 
	C412.987671,576.533691 415.300568,575.303040 418.154114,575.827759 
	C421.970886,576.529602 424.816376,580.364929 424.240723,584.283997 
	C423.697937,587.979065 421.695312,590.342285 417.638672,590.341919 
	C413.488464,590.341553 410.017761,587.511353 409.629700,583.704895 
	C409.461670,582.056702 409.419189,580.378784 410.633698,578.585083 
z"/>
<path fill="#000000" opacity="1.000000" stroke="none" 
	d="
M412.676636,562.984985 
	C413.996460,557.409302 417.324463,555.429810 422.190735,556.906006 
	C425.962189,558.050110 428.364075,562.654175 427.101685,566.543762 
	C425.970337,570.029724 423.167419,570.662170 419.943237,570.491333 
	C415.432343,570.252319 412.888214,568.034363 412.676636,562.984985 
z"/>
<path fill="#000000" opacity="1.000000" stroke="none" 
	d="
M391.593323,581.594116 
	C388.435364,578.528625 387.500153,575.279663 390.137817,572.036072 
	C392.659607,568.934937 396.390045,568.996643 399.763092,570.215881 
	C403.364044,571.517395 403.704803,574.862732 403.250183,578.153198 
	C402.542908,583.272095 398.147888,584.666870 391.593323,581.594116 
z"/>
<path fill="#000000" opacity="1.000000" stroke="none" 
	d="
M392.308380,551.422729 
	C395.458984,548.403137 398.669067,547.746948 402.101440,549.926147 
	C405.389801,552.013855 406.559753,556.988892 404.429382,560.097168 
	C402.064941,563.546997 398.815277,563.856018 395.208008,562.124329 
	C390.979126,560.094238 389.971344,556.789368 392.308380,551.422729 
z"/>
</svg>