<svg version="1.1" id="Layer_1" xmlns="http://www.w3.org/2000/svg" xmlns:xlink="http://www.w3.org/1999/xlink" x="0px" y="0px"
	 width="100%" viewBox="0 0 1024 1024" enable-background="new 0 0 1024 1024" xml:space="preserve">
<path fill="none" opacity="1.000000" stroke="#000000" stroke-linecap="round" stroke-linejoin="round" stroke-width="4.000000"
	d="
M950.500000,596.500000 
	C780.166687,596.500000 609.833313,596.500000 439.500000,596.500000 
"/>
<path fill="none" opacity="1.000000" stroke="#000000" stroke-linecap="round" stroke-linejoin="round" stroke-width="13.000000"
	d="
M445.000000,541.500000 
	C445.012268,547.098572 444.272888,553.089050 449.548920,556.932861 
	C454.065918,560.223572 459.046875,560.899353 464.538330,558.591187 
	C469.687469,556.427002 471.612396,552.318604 471.914093,547.494629 
	C472.882507,532.009094 472.986755,516.491577 471.947754,501.003510 
	C471.420471,493.143585 466.571198,488.610992 457.999756,488.585510 
	C450.616943,488.563538 445.037811,494.624023 445.012512,502.000031 
	C444.967865,514.999878 445.000000,528.000000 445.000000,541.000000 
"/>
<path fill="none" opacity="1.000000" stroke="#000000" stroke-linecap="round" stroke-linejoin="round" stroke-width="13.000000"
	d="
M616.000000,488.500000 
	C607.024902,490.011688 603.005737,494.795776 603.001587,504.000000 
	C602.995483,517.666687 602.994507,531.333313 603.001770,545.000000 
	C603.007446,555.699158 610.306152,561.740845 620.500000,559.500000 
	C625.984070,558.294434 629.884827,553.056458 629.955627,545.999573 
	C630.102661,531.334351 630.373596,516.653503 629.857056,502.005035 
	C629.557068,493.498505 626.129028,489.948700 618.495850,489.034698 
	C617.113647,488.869202 616.229858,488.603485 616.500000,487.000000 
"/>
<path fill="none" opacity="1.000000" stroke="#000000" stroke-linecap="round" stroke-linejoin="round" stroke-width="11.000000"
	d="
M243.750000,427.500000 
	C243.833328,432.000000 243.985947,436.499969 243.988892,441.000000 
	C244.009750,473.000000 243.994705,505.000000 244.002716,537.000000 
	C244.005768,549.204285 244.417603,561.429260 242.000000,573.500000 
"/>
<path fill="none" opacity="1.000000" stroke="#000000" stroke-linecap="round" stroke-linejoin="round" stroke-width="12.000000"
	d="
M215.750000,427.500000 
	C216.574234,430.282654 216.499619,433.144836 216.499664,436.000000 
	C216.500168,473.000000 216.584183,510.000336 216.432205,546.999695 
	C216.400040,554.828125 213.061615,562.055725 211.010895,569.502991 
	C210.925598,569.812805 211.000000,570.166687 211.000000,570.500000 
"/>
<path fill="none" opacity="1.000000" stroke="#000000" stroke-linecap="round" stroke-linejoin="round" stroke-width="17.000000"
	d="
M483.500000,374.500000 
	C484.010101,369.664429 483.035400,364.958221 480.396881,361.069977 
	C476.450256,355.254028 470.149261,353.229858 463.520355,354.147034 
	C456.528290,355.114471 450.535706,358.410706 448.555176,366.014374 
	C447.709900,369.259430 446.947235,372.552032 446.964874,376.000183 
	C447.044983,391.666412 446.940887,407.333740 447.045502,422.999695 
	C447.068878,426.501770 447.533173,430.018890 448.025085,433.496460 
	C449.490784,443.857483 456.282806,448.150055 466.000000,449.000000 
"/>
<path fill="none" opacity="1.000000" stroke="#000000" stroke-linecap="round" stroke-linejoin="round" stroke-width="17.000000"
	d="
M754.500000,399.500000 
	C755.525818,396.965973 757.411194,394.883209 759.557434,393.595703 
	C767.106140,389.067200 766.831970,381.606567 766.811768,374.500549 
	C766.804016,371.781097 766.893005,368.765259 765.564392,365.969391 
	C763.054138,360.686737 759.674927,356.987061 753.517517,355.900757 
	C747.973328,354.922668 742.532776,354.695709 736.998962,355.492676 
	C733.786255,355.955444 731.908203,357.729523 732.030212,360.998871 
	C732.496521,373.496124 730.740784,386.068817 733.079224,398.485077 
	C733.633911,401.430328 731.840454,403.690125 731.901917,406.502136 
	C732.142151,417.496887 732.002563,428.500000 731.998108,439.500000 
	C731.997009,442.134583 731.907837,445.320343 735.019592,445.893646 
	C744.538818,447.647339 754.074158,448.613770 762.517944,442.022980 
	C765.517090,439.681976 767.056519,436.383209 767.358215,432.987396 
	C767.872498,427.199768 767.932495,421.289368 767.345642,415.515686 
	C766.963989,411.761169 764.509583,408.790222 761.670593,405.836090 
	C756.311035,400.259094 750.285095,398.631317 742.993896,399.445374 
	C740.030823,399.776215 737.000000,399.500000 734.000000,399.500000 
"/>
<path fill="none" opacity="1.000000" stroke="#000000" stroke-linecap="round" stroke-linejoin="round" stroke-width="17.000000"
	d="
M853.000000,401.500000 
	C858.998596,401.858948 865.076172,400.646576 871.019531,402.435120 
	C871.492249,402.577393 872.242859,402.815521 873.056519,402.060944 
	C878.113464,397.370972 884.316833,393.762360 884.618042,385.504303 
	C884.813477,380.148071 885.096497,374.856323 884.553040,369.494629 
	C883.732361,361.398132 879.394043,356.802155 871.496216,355.523468 
	C866.003052,354.634064 860.494263,354.567963 854.994934,355.726044 
	C852.316040,356.290222 850.982666,358.095978 851.060181,360.498047 
	C851.490356,373.829895 849.801697,387.217377 852.020142,400.496643 
	C852.570923,403.793304 850.804871,406.694855 850.885193,410.002777 
	C851.176453,421.995728 851.000000,434.000000 851.000000,446.000000 
"/>
<path fill="none" opacity="1.000000" stroke="#000000" stroke-linecap="round" stroke-linejoin="round" stroke-width="7.000000"
	d="
M285.000000,393.000000 
	C282.073975,390.642334 278.790924,389.915741 274.999725,389.931152 
	C244.666885,390.054382 214.333237,390.032501 184.000122,389.953522 
	C180.688354,389.944885 177.806122,390.506256 175.500000,393.000000 
"/>
<path fill="none" opacity="1.000000" stroke="#000000" stroke-linecap="round" stroke-linejoin="round" stroke-width="13.000000"
	d="
M890.500000,487.000000 
	C890.770142,488.603485 889.866943,488.813965 888.507141,489.042572 
	C879.257690,490.597900 877.405579,494.624268 877.140991,502.504730 
	C876.649170,517.154907 876.698608,531.841980 877.121460,546.496521 
	C877.347961,554.346802 881.059875,559.884094 890.500183,559.981873 
	C898.825073,560.068176 903.409424,555.240112 903.500000,546.500000 
"/>
<path fill="none" opacity="1.000000" stroke="#000000" stroke-linecap="round" stroke-linejoin="round" stroke-width="13.000000"
	d="
M568.500000,487.000000 
	C568.754395,488.232483 568.210815,489.031433 567.001221,488.974335 
	C558.574951,488.576721 554.570740,494.240021 554.157043,503.507019 
	C553.548218,517.146545 553.637939,530.846497 554.135681,544.495056 
	C554.434387,552.687317 556.805481,558.576599 565.989563,559.594116 
	C574.494751,560.536377 579.110046,557.499268 580.526917,549.004517 
	C580.657715,548.220703 581.166687,547.500000 581.500000,546.750000 
"/>
<path fill="none" opacity="1.000000" stroke="#000000" stroke-linecap="round" stroke-linejoin="round" stroke-width="13.000000"
	d="
M830.000000,526.500000 
	C834.854309,526.058411 839.717346,525.364258 844.102600,526.741211 
	C854.751709,521.580627 855.134094,512.415771 854.046265,502.494934 
	C852.969666,492.676086 849.870422,489.630676 840.000000,489.498932 
	C827.213623,489.328308 827.642761,491.142639 828.067444,501.497223 
	C828.409302,509.833740 826.460632,518.319031 829.500000,526.500000 
	C826.836609,532.147888 828.239258,538.154602 828.060547,544.001831 
	C827.923279,548.492554 828.333313,553.000000 828.500000,557.500000 
"/>
<path fill="none" opacity="1.000000" stroke="#000000" stroke-linecap="round" stroke-linejoin="round" stroke-width="20.000000"
	d="
M307.000000,595.000000 
	C305.333344,593.666626 303.789124,592.130493 301.977661,591.036987 
	C295.855164,587.340881 289.632050,584.469116 281.986450,585.387207 
	C272.218109,586.560303 262.296844,583.680359 252.500000,586.000000 
"/>
<path fill="none" opacity="1.000000" stroke="#000000" stroke-linecap="round" stroke-linejoin="round" stroke-width="7.000000"
	d="
M272.000000,415.000000 
	C269.073975,412.642334 265.792084,411.903748 261.999512,411.929871 
	C240.833847,412.075836 219.666428,412.052856 198.500229,411.952087 
	C194.611740,411.933594 190.994995,412.232513 188.000000,415.000000 
"/>
<path fill="none" opacity="1.000000" stroke="#000000" stroke-linecap="round" stroke-linejoin="round" stroke-width="6.000000"
	d="
M897.000000,631.500000 
	C890.879761,632.402649 885.963074,637.114441 884.999939,643.000000 
	C883.977844,649.245728 887.410522,656.797485 892.500000,659.500000 
	C896.863098,661.816833 905.116455,660.316223 909.000061,656.500061 
	C912.970215,652.598755 914.220642,644.289368 911.481384,639.009644 
	C908.555969,633.370972 903.870239,630.820007 897.500000,631.500000 
"/>
<path fill="none" opacity="1.000000" stroke="#000000" stroke-linecap="round" stroke-linejoin="round" stroke-width="16.000000"
	d="
M649.500000,368.000000 
	C644.527405,373.273163 644.077576,379.473572 644.308472,386.506287 
	C644.888000,404.153900 644.500000,421.833344 644.500000,439.500000 
	C644.500000,441.833344 644.500000,444.166656 644.500000,446.500000 
"/>
<path fill="none" opacity="1.000000" stroke="#000000" stroke-linecap="round" stroke-linejoin="round" stroke-width="20.000000"
	d="
M239.499985,596.000000 
	C243.999985,598.333374 248.460205,600.747986 253.012375,602.974670 
	C256.768433,604.812012 260.788208,605.653625 265.000153,605.504395 
	C281.097198,604.934204 297.065247,606.456177 313.000000,608.500000 
"/>
<path fill="none" opacity="1.000000" stroke="#000000" stroke-linecap="round" stroke-linejoin="round" stroke-width="17.000000"
	d="
M822.500000,355.500000 
	C816.500000,355.500000 810.499084,355.433838 804.500244,355.517365 
	C797.583862,355.613678 796.044678,357.168030 796.010742,364.000061 
	C795.966858,372.833191 795.218628,381.757111 796.227722,390.473633 
	C797.168213,398.597046 795.825195,406.497986 795.968567,414.500549 
	C796.111877,422.497986 796.125244,430.502533 795.963928,438.499268 
	C795.810120,446.123230 798.138489,446.474457 804.506470,446.903687 
	C810.977112,447.339813 817.500000,447.000000 824.000000,447.000000 
"/>
<path fill="none" opacity="1.000000" stroke="#000000" stroke-linecap="round" stroke-linejoin="round" stroke-width="6.000000"
	d="
M478.500000,631.500000 
	C478.500000,637.833313 478.498199,644.166687 478.500519,650.500000 
	C478.502869,656.897400 482.068787,660.162415 488.494598,660.582458 
	C494.395081,660.968140 499.631226,657.049011 499.105103,650.491577 
	C498.613525,644.364319 499.000000,638.166687 499.000000,632.000000 
"/>
<path fill="none" opacity="1.000000" stroke="#000000" stroke-linecap="round" stroke-linejoin="round" stroke-width="15.000000"
	d="
M575.500000,447.250000 
	C578.394287,445.124542 577.001343,441.703827 577.850525,438.953857 
	C579.372131,434.026398 579.196106,428.610626 581.986755,423.992004 
	C582.252686,423.551941 582.527466,422.977112 582.471680,422.503357 
	C581.089478,410.779480 585.908997,399.891296 587.057190,388.505768 
	C587.548157,383.637909 588.549805,378.809479 589.531433,374.006439 
	C590.603455,368.761719 592.930786,364.128235 597.293884,360.297821 
	C601.058960,362.664093 603.653687,366.029175 604.467102,370.505981 
	C607.220093,385.656952 610.427551,400.761108 612.282898,416.026398 
	C613.443970,425.579132 616.991211,434.521637 617.900146,444.009583 
	C618.182434,446.956940 620.375671,447.411743 622.000000,448.750000 
"/>
<path fill="none" opacity="1.000000" stroke="#000000" stroke-linecap="round" stroke-linejoin="round" stroke-width="12.000000"
	d="
M656.500000,498.000000 
	C651.836365,502.307251 652.153503,507.678162 652.348572,513.505066 
	C652.816833,527.489380 652.500000,541.500000 652.500000,555.500000 
	C652.500000,556.500000 652.500000,557.500000 652.500000,558.500000 
"/>
<path fill="none" opacity="1.000000" stroke="#000000" stroke-linecap="round" stroke-linejoin="round" stroke-width="13.000000"
	d="
M760.000000,493.000000 
	C759.353943,495.630585 759.114075,498.038879 760.919617,500.557617 
	C762.755005,503.117950 763.057922,506.284332 763.040405,509.500214 
	C762.952209,525.666443 763.000000,541.833313 763.000000,558.000000 
"/>
<path fill="none" opacity="1.000000" stroke="#000000" stroke-linecap="round" stroke-linejoin="round" stroke-width="12.000000"
	d="
M723.000000,493.000000 
	C723.828979,496.221497 723.678955,499.189484 721.549072,502.036682 
	C719.839539,504.321808 719.457092,507.108032 719.468750,510.000122 
	C719.533752,526.166565 719.500000,542.333313 719.500000,558.500000 
"/>
<path fill="none" opacity="1.000000" stroke="#000000" stroke-linecap="round" stroke-linejoin="round" stroke-width="16.000000"
	d="
M698.000000,360.000000 
	C697.055115,364.219910 697.887085,367.766327 700.322998,371.612122 
	C703.279541,376.280060 702.238831,382.179230 702.364685,387.503204 
	C702.596924,397.324066 702.564697,407.160797 702.131226,417.005768 
	C701.699402,426.812775 702.333374,436.666656 702.500061,446.500000 
"/>
<path fill="none" opacity="1.000000" stroke="#000000" stroke-linecap="round" stroke-linejoin="round" stroke-width="13.000000"
	d="
M649.000000,360.000000 
	C648.906189,364.630219 650.420532,368.167450 654.408875,371.122925 
	C658.817627,374.390015 659.317078,380.011230 660.469177,385.007111 
	C662.577454,394.148804 664.451843,403.344238 666.521423,412.495148 
	C667.472107,416.698334 669.688354,420.208801 673.000000,423.000000 
"/>
<path fill="none" opacity="1.000000" stroke="#000000" stroke-linecap="round" stroke-linejoin="round" stroke-width="13.000000"
	d="
M693.000000,493.000000 
	C693.096741,495.651978 692.506348,498.191711 694.853210,500.640686 
	C696.478333,502.336517 696.487976,505.389771 696.510803,507.999908 
	C696.656311,524.666748 696.833313,541.333313 697.000000,558.000000 
"/>
<path fill="none" opacity="1.000000" stroke="#000000" stroke-linecap="round" stroke-linejoin="round" stroke-width="6.000000"
	d="
M444.500000,648.500000 
	C447.166656,648.500000 449.834290,648.455017 452.499786,648.510498 
	C456.580444,648.595459 460.968781,644.883972 461.062256,641.001526 
	C461.181061,636.066345 458.375427,632.269470 453.499512,631.503174 
	C453.336853,631.477600 453.165131,631.514832 453.000214,631.497864 
	C443.588837,630.530457 443.000000,631.060242 443.000000,640.500000 
	C443.000000,647.000000 443.000000,653.500000 443.000000,660.000000 
"/>
<path fill="none" opacity="1.000000" stroke="#000000" stroke-linecap="round" stroke-linejoin="round" stroke-width="12.000000"
	d="
M694.000000,369.000000 
	C688.708618,373.227417 687.283997,379.308929 685.982300,385.496277 
	C684.050781,394.677338 682.130127,403.864990 679.914246,412.979156 
	C679.313477,415.450073 678.245056,418.451813 676.374573,419.829712 
	C672.927856,422.368591 672.922913,425.462280 672.971558,429.000397 
	C673.067810,435.999054 673.000000,443.000000 673.000000,450.000000 
"/>
<path fill="none" opacity="1.000000" stroke="#000000" stroke-linecap="round" stroke-linejoin="round" stroke-width="6.000000"
	d="
M857.500000,631.000000 
	C846.510681,632.704468 843.165771,639.782532 844.000000,648.500000 
	C844.550293,654.250854 848.023071,658.022156 853.047607,659.870605 
	C857.511475,661.512756 862.296509,661.246948 865.960571,657.461792 
	C867.568909,655.800232 869.239197,654.494873 871.500000,654.000000 
"/>
<path fill="none" opacity="1.000000" stroke="#000000" stroke-linecap="round" stroke-linejoin="round" stroke-width="13.000000"
	d="
M946.500000,489.500000 
	C942.000000,489.500000 937.491943,489.329651 933.002014,489.542572 
	C927.245361,489.815643 925.621643,490.555603 926.036804,496.497437 
	C926.653564,505.326019 926.847839,514.327942 926.807312,522.996765 
	C926.765747,531.863098 926.643799,541.006653 926.036865,550.002502 
	C925.583557,556.720215 925.978455,558.518005 934.500000,558.501465 
	C938.833313,558.493103 943.166687,558.500000 947.500000,558.500000 
"/>
<path fill="none" opacity="1.000000" stroke="#000000" stroke-linecap="round" stroke-linejoin="round" stroke-width="13.000000"
	d="
M806.500000,489.500000 
	C802.000000,489.500000 797.491943,489.329712 793.002014,489.542603 
	C787.245361,489.815613 785.621521,490.555664 786.036682,496.497437 
	C786.653442,505.326019 786.847839,514.327942 786.807312,522.996765 
	C786.765747,531.863098 786.643860,541.006653 786.036926,550.002502 
	C785.583679,556.720215 785.978455,558.518066 794.500000,558.501526 
	C798.833313,558.493103 803.166687,558.500000 807.500000,558.500000 
"/>
<path fill="none" opacity="1.000000" stroke="#000000" stroke-linecap="round" stroke-linejoin="round" stroke-width="11.000000"
	d="
M300.500000,626.000000 
	C297.833344,625.333313 295.002716,625.035645 292.528351,623.936218 
	C281.801849,619.170166 270.862885,621.864990 260.006531,622.824036 
	C255.191422,623.249390 251.253387,626.090088 247.500000,629.000000 
"/>
<path fill="none" opacity="1.000000" stroke="#000000" stroke-linecap="round" stroke-linejoin="round" stroke-width="13.000000"
	d="
M514.500000,489.500000 
	C510.333344,489.500000 506.158325,489.332947 502.002014,489.540436 
	C496.245667,489.827820 494.640320,490.553711 495.031342,496.497925 
	C495.656006,505.992920 493.362274,515.638855 496.500000,525.000000 
	C493.319397,535.203613 495.768097,545.679565 495.006378,556.000488 
	C494.957428,556.663574 495.000000,557.333313 495.000000,558.000000 
"/>
<path fill="none" opacity="1.000000" stroke="#000000" stroke-linecap="round" stroke-linejoin="round" stroke-width="16.000000"
	d="
M549.500000,355.500000 
	C549.500000,366.833344 549.453430,378.166962 549.530823,389.499786 
	C549.551697,392.563141 549.358337,395.560364 548.491577,398.497528 
	C548.296143,399.159576 547.684204,399.458252 547.918823,400.517975 
	C551.286316,415.735382 548.679626,431.177124 549.500000,446.500000 
"/>
<path fill="none" opacity="1.000000" stroke="#000000" stroke-linecap="round" stroke-linejoin="round" stroke-width="10.000000"
	d="
M692.500000,498.000000 
	C686.871094,500.510437 685.619995,505.751007 684.522095,511.004608 
	C683.098083,517.818970 681.870911,524.674377 680.468689,531.493591 
	C680.185364,532.871460 679.881226,534.600708 678.937866,535.429260 
	C673.016357,540.630432 674.616821,547.499207 674.505920,554.000122 
	C674.468933,556.166138 674.500000,558.333313 674.500000,560.500000 
"/>
<path fill="none" opacity="1.000000" stroke="#000000" stroke-linecap="round" stroke-linejoin="round" stroke-width="17.000000"
	d="
M512.000000,356.000000 
	C512.000000,367.166656 512.047180,378.333679 511.969208,389.499786 
	C511.947815,392.563141 512.141602,395.560364 513.008423,398.497498 
	C513.203857,399.159576 513.818604,399.457367 513.580872,400.518127 
	C510.208405,415.567413 512.833618,430.844330 512.000000,446.000000 
"/>
<path fill="none" opacity="1.000000" stroke="#000000" stroke-linecap="round" stroke-linejoin="round" stroke-width="9.000000"
	d="
M756.000000,500.500000 
	C751.719421,503.162903 751.549988,507.868225 750.571350,512.016846 
	C748.973999,518.787903 747.993164,525.703552 746.430420,532.483948 
	C745.685974,535.714172 744.025085,538.652649 741.000000,540.500000 
"/>
<path fill="none" opacity="1.000000" stroke="#000000" stroke-linecap="round" stroke-linejoin="round" stroke-width="15.000000"
	d="
M872.499939,403.000000 
	C876.166626,416.500000 879.893127,429.984222 883.461792,443.510071 
	C884.469238,447.328308 887.980591,448.192932 890.500000,450.250000 
"/>
<path fill="none" opacity="1.000000" stroke="#000000" stroke-linecap="round" stroke-linejoin="round" stroke-width="7.000000"
	d="
M587.000000,632.000000 
	C587.000000,640.000000 587.198181,648.007080 586.911499,655.996826 
	C586.779785,659.667053 588.264221,660.630493 591.500854,660.526978 
	C595.163818,660.409790 598.833313,660.500000 602.500000,660.500000 
"/>
<path fill="none" opacity="1.000000" stroke="#000000" stroke-linecap="round" stroke-linejoin="round" stroke-width="11.000000"
	d="
M656.000000,493.000000 
	C655.896545,495.968384 657.421875,498.089081 659.488464,500.012390 
	C664.567627,504.739258 664.443665,511.519104 665.828491,517.539429 
	C667.002319,522.642151 668.614746,527.682617 669.127014,532.987732 
	C669.418335,536.003784 671.433289,538.600037 674.000000,540.500000 
"/>
<path fill="none" opacity="1.000000" stroke="#000000" stroke-linecap="round" stroke-linejoin="round" stroke-width="10.000000"
	d="
M724.000000,499.000000 
	C728.178101,501.492706 730.266724,505.164520 731.075439,509.987366 
	C732.285278,517.202698 733.967163,524.340454 735.528687,531.493713 
	C735.829285,532.870605 736.143372,534.520569 737.058044,535.442444 
	C742.873535,541.303040 740.637207,548.642334 740.986023,555.500732 
	C741.078979,557.329285 741.000000,559.166687 741.000000,561.000000 
"/>
<path fill="none" opacity="1.000000" stroke="#000000" stroke-linecap="round" stroke-linejoin="round" stroke-width="6.000000"
	d="
M564.500000,645.500000 
	C565.166687,644.666687 565.937805,643.895691 566.479553,642.987793 
	C567.870239,640.657104 568.772827,638.141052 567.469543,635.515137 
	C565.968201,632.490112 563.338806,631.283752 559.999329,631.488647 
	C558.836975,631.559937 557.662964,631.560181 556.500732,631.488525 
	C553.266113,631.289124 551.749817,632.330627 551.913086,636.003845 
	C552.216187,642.823730 551.973877,649.666870 552.022888,656.499817 
	C552.032227,657.809692 551.426025,659.291870 553.474731,660.066833 
	C555.899170,660.983948 564.582825,660.380371 566.522339,659.032104 
	C569.569153,656.914062 569.549683,653.947693 568.677429,651.021606 
	C567.739807,647.876099 565.842285,645.413208 561.999756,645.489075 
	C559.167603,645.545044 556.333313,645.500000 553.500000,645.500000 
"/>
<path fill="none" opacity="1.000000" stroke="#000000" stroke-linecap="round" stroke-linejoin="round" stroke-width="15.000000"
	d="
M280.500000,560.000000 
	C275.333191,565.499634 268.854065,567.286682 261.498810,567.035156 
	C252.450165,566.725647 245.304611,570.977051 239.000000,577.000000 
"/>
<path fill="none" opacity="1.000000" stroke="#000000" stroke-linecap="round" stroke-linejoin="round" stroke-width="15.000000"
	d="
M514.500000,400.000000 
	C525.333313,400.000000 536.166687,400.000000 547.000000,400.000000 
"/>
<path fill="none" opacity="1.000000" stroke="#000000" stroke-linecap="round" stroke-linejoin="round" stroke-width="12.000000"
	d="
M845.000061,527.500000 
	C848.000061,537.666626 851.000061,547.833313 854.000061,558.000000 
"/>
<path fill="none" opacity="1.000000" stroke="#000000" stroke-linecap="round" stroke-linejoin="round" stroke-width="6.000000"
	d="
M772.500000,631.500000 
	C767.332214,631.500000 762.164429,631.500000 757.231323,631.500000 
	C755.512817,635.267334 756.838379,638.704285 756.760681,642.006165 
	C756.648071,646.790039 757.046875,651.675293 756.910889,656.497498 
	C756.819458,659.737244 758.247742,660.541016 761.000122,660.510620 
	C764.832947,660.468323 768.666687,660.500000 772.500000,660.500000 
"/>
<path fill="none" opacity="1.000000" stroke="#000000" stroke-linecap="round" stroke-linejoin="round" stroke-width="6.000000"
	d="
M534.500000,631.500000 
	C530.333313,631.500000 526.166382,631.530884 522.000122,631.489136 
	C519.247742,631.461548 517.809326,632.260376 517.923950,635.502686 
	C518.171204,642.493958 518.171204,649.506042 517.923950,656.497314 
	C517.809326,659.739624 519.247742,660.538452 522.000122,660.510864 
	C526.166382,660.469116 530.333313,660.500000 534.500000,660.500000 
"/>
<path fill="none" opacity="1.000000" stroke="#000000" stroke-linecap="round" stroke-linejoin="round" stroke-width="14.000000"
	d="
M583.000000,422.500000 
	C592.500000,424.127319 602.000000,424.003754 611.500000,422.500000 
"/>
<path fill="none" opacity="1.000000" stroke="#000000" stroke-linecap="round" stroke-linejoin="round" stroke-width="7.000000"
	d="
M827.000000,632.000000 
	C827.000000,641.333313 827.000000,650.666687 827.000000,660.000000 
"/>
<path fill="none" opacity="1.000000" stroke="#000000" stroke-linecap="round" stroke-linejoin="round" stroke-width="6.000000"
	d="
M710.000000,635.500000 
	C708.405396,637.414062 708.468567,639.692261 708.485046,642.000122 
	C708.528992,648.166504 708.500000,654.333313 708.500000,660.500000 
"/>
<path fill="none" opacity="1.000000" stroke="#000000" stroke-linecap="round" stroke-linejoin="round" stroke-width="6.000000"
	d="
M737.250000,632.500000 
	C737.000000,633.333313 736.294495,634.378479 736.568604,634.968140 
	C740.422241,643.257202 737.668701,652.012939 738.500000,660.500000 
"/>
<path fill="none" opacity="1.000000" stroke="#000000" stroke-linecap="round" stroke-linejoin="round" stroke-width="5.000000"
	d="
M284.000031,564.500000 
	C285.333344,571.166687 286.666687,577.833313 288.000031,584.500000 
"/>
<path fill="none" opacity="1.000000" stroke="#000000" stroke-linecap="round" stroke-linejoin="round" stroke-width="6.000000"
	d="
M709.500000,632.500000 
	C715.375793,638.320251 717.151855,647.010376 723.500000,652.500000 
"/>
<path fill="none" opacity="1.000000" stroke="#000000" stroke-linecap="round" stroke-linejoin="round" stroke-width="6.000000"
	d="
M645.500000,662.000000 
	C639.564331,659.437195 639.618042,653.210632 637.667603,648.431580 
	C635.547668,643.237061 635.040527,637.380859 630.347107,632.538269 
	C623.802429,640.789001 623.183899,651.568420 618.500000,660.500000 
"/>
<path fill="none" opacity="1.000000" stroke="#000000" stroke-linecap="round" stroke-linejoin="round" stroke-width="6.000000"
	d="
M799.500000,647.500000 
	C795.729553,649.607727 794.644104,653.721924 792.579407,657.049255 
	C791.049805,659.514526 789.484314,661.514465 786.500000,662.000000 
"/>
<path fill="none" opacity="1.000000" stroke="#000000" stroke-linecap="round" stroke-linejoin="round" stroke-width="6.000000"
	d="
M812.500000,629.500000 
	C808.096741,630.430115 806.909180,634.500366 804.358582,637.374512 
	C799.250854,643.130432 798.701782,647.882263 804.356628,653.640808 
	C806.598206,655.923462 807.346680,659.698364 810.500000,661.500000 
"/>
<path fill="none" opacity="1.000000" stroke="#000000" stroke-linecap="round" stroke-linejoin="round" stroke-width="6.000000"
	d="
M736.000000,635.500000 
	C730.790283,638.780334 730.056885,645.168274 726.379517,649.395203 
	C723.632507,652.552673 723.085327,655.742249 723.500000,659.500000 
"/>
<path fill="none" opacity="1.000000" stroke="#000000" stroke-linecap="round" stroke-linejoin="round" stroke-width="6.000000"
	d="
M638.000000,651.500000 
	C632.886597,653.318726 627.689453,652.539124 622.500000,652.000000 
"/>
<path fill="none" opacity="1.000000" stroke="#000000" stroke-linecap="round" stroke-linejoin="round" stroke-width="6.000000"
	d="
M799.000000,643.500000 
	C796.000732,641.303406 794.187988,638.063538 792.668274,634.918701 
	C791.639709,632.790161 790.417847,631.480408 788.500000,630.500000 
"/>
<path fill="none" opacity="1.000000" stroke="#000000" stroke-linecap="round" stroke-linejoin="round" stroke-width="6.000000"
	d="
M770.500000,645.500000 
	C766.338074,645.785095 762.129272,644.898132 758.000000,646.000000 
"/>
<path fill="none" opacity="1.000000" stroke="#000000" stroke-linecap="round" stroke-linejoin="round" stroke-width="6.000000"
	d="
M519.500000,645.500000 
	C523.500000,645.500000 527.500000,645.500000 531.500000,645.500000 
"/>
<path fill="none" opacity="1.000000" stroke="#000000" stroke-linecap="round" stroke-linejoin="round" stroke-width="5.000000"
	d="
M772.500000,618.500000 
	C768.164429,619.273621 765.812317,623.683655 761.500000,624.500000 
"/>
<path fill="none" opacity="1.000000" stroke="#000000" stroke-linecap="round" stroke-linejoin="round" stroke-width="6.000000"
	d="
M857.500000,629.500000 
	C857.666626,630.083313 857.879395,631.185486 857.993347,631.175415 
	C862.843384,630.744324 865.547363,634.488647 869.000000,636.750000 
"/>
</svg>